<?xml version="1.0" encoding="utf-8"?>
<!DOCTYPE svg PUBLIC "-//W3C//DTD SVG 20010904//EN" "http://www.w3.org/TR/2001/REC-SVG-20010904/DTD/svg10.dtd">
<svg xmlns="http://www.w3.org/2000/svg" xml:space="preserve" xmlns:xlink="http://www.w3.org/1999/xlink" width="810" height="810" viewBox="0 0 810 810">
<desc></desc>
<rect width="810" height="810" fill="#ffffff" cx="0" cy="0" />
<g fill="#000000">
<rect x="36" y="36" width="18" height="18" />
<rect x="54" y="36" width="18" height="18" />
<rect x="72" y="36" width="18" height="18" />
<rect x="90" y="36" width="18" height="18" />
<rect x="108" y="36" width="18" height="18" />
<rect x="126" y="36" width="18" height="18" />
<rect x="144" y="36" width="18" height="18" />
<rect x="252" y="36" width="18" height="18" />
<rect x="270" y="36" width="18" height="18" />
<rect x="324" y="36" width="18" height="18" />
<rect x="342" y="36" width="18" height="18" />
<rect x="360" y="36" width="18" height="18" />
<rect x="378" y="36" width="18" height="18" />
<rect x="432" y="36" width="18" height="18" />
<rect x="486" y="36" width="18" height="18" />
<rect x="504" y="36" width="18" height="18" />
<rect x="522" y="36" width="18" height="18" />
<rect x="558" y="36" width="18" height="18" />
<rect x="576" y="36" width="18" height="18" />
<rect x="594" y="36" width="18" height="18" />
<rect x="648" y="36" width="18" height="18" />
<rect x="666" y="36" width="18" height="18" />
<rect x="684" y="36" width="18" height="18" />
<rect x="702" y="36" width="18" height="18" />
<rect x="720" y="36" width="18" height="18" />
<rect x="738" y="36" width="18" height="18" />
<rect x="756" y="36" width="18" height="18" />
<rect x="36" y="54" width="18" height="18" />
<rect x="144" y="54" width="18" height="18" />
<rect x="180" y="54" width="18" height="18" />
<rect x="198" y="54" width="18" height="18" />
<rect x="234" y="54" width="18" height="18" />
<rect x="252" y="54" width="18" height="18" />
<rect x="270" y="54" width="18" height="18" />
<rect x="306" y="54" width="18" height="18" />
<rect x="360" y="54" width="18" height="18" />
<rect x="378" y="54" width="18" height="18" />
<rect x="396" y="54" width="18" height="18" />
<rect x="450" y="54" width="18" height="18" />
<rect x="468" y="54" width="18" height="18" />
<rect x="486" y="54" width="18" height="18" />
<rect x="504" y="54" width="18" height="18" />
<rect x="558" y="54" width="18" height="18" />
<rect x="648" y="54" width="18" height="18" />
<rect x="756" y="54" width="18" height="18" />
<rect x="36" y="72" width="18" height="18" />
<rect x="72" y="72" width="18" height="18" />
<rect x="90" y="72" width="18" height="18" />
<rect x="108" y="72" width="18" height="18" />
<rect x="144" y="72" width="18" height="18" />
<rect x="198" y="72" width="18" height="18" />
<rect x="288" y="72" width="18" height="18" />
<rect x="306" y="72" width="18" height="18" />
<rect x="342" y="72" width="18" height="18" />
<rect x="360" y="72" width="18" height="18" />
<rect x="396" y="72" width="18" height="18" />
<rect x="414" y="72" width="18" height="18" />
<rect x="504" y="72" width="18" height="18" />
<rect x="522" y="72" width="18" height="18" />
<rect x="612" y="72" width="18" height="18" />
<rect x="648" y="72" width="18" height="18" />
<rect x="684" y="72" width="18" height="18" />
<rect x="702" y="72" width="18" height="18" />
<rect x="720" y="72" width="18" height="18" />
<rect x="756" y="72" width="18" height="18" />
<rect x="36" y="90" width="18" height="18" />
<rect x="72" y="90" width="18" height="18" />
<rect x="90" y="90" width="18" height="18" />
<rect x="108" y="90" width="18" height="18" />
<rect x="144" y="90" width="18" height="18" />
<rect x="198" y="90" width="18" height="18" />
<rect x="234" y="90" width="18" height="18" />
<rect x="252" y="90" width="18" height="18" />
<rect x="270" y="90" width="18" height="18" />
<rect x="288" y="90" width="18" height="18" />
<rect x="378" y="90" width="18" height="18" />
<rect x="396" y="90" width="18" height="18" />
<rect x="414" y="90" width="18" height="18" />
<rect x="432" y="90" width="18" height="18" />
<rect x="450" y="90" width="18" height="18" />
<rect x="468" y="90" width="18" height="18" />
<rect x="540" y="90" width="18" height="18" />
<rect x="558" y="90" width="18" height="18" />
<rect x="576" y="90" width="18" height="18" />
<rect x="594" y="90" width="18" height="18" />
<rect x="648" y="90" width="18" height="18" />
<rect x="684" y="90" width="18" height="18" />
<rect x="702" y="90" width="18" height="18" />
<rect x="720" y="90" width="18" height="18" />
<rect x="756" y="90" width="18" height="18" />
<rect x="36" y="108" width="18" height="18" />
<rect x="72" y="108" width="18" height="18" />
<rect x="90" y="108" width="18" height="18" />
<rect x="108" y="108" width="18" height="18" />
<rect x="144" y="108" width="18" height="18" />
<rect x="216" y="108" width="18" height="18" />
<rect x="252" y="108" width="18" height="18" />
<rect x="270" y="108" width="18" height="18" />
<rect x="288" y="108" width="18" height="18" />
<rect x="342" y="108" width="18" height="18" />
<rect x="360" y="108" width="18" height="18" />
<rect x="396" y="108" width="18" height="18" />
<rect x="450" y="108" width="18" height="18" />
<rect x="468" y="108" width="18" height="18" />
<rect x="540" y="108" width="18" height="18" />
<rect x="576" y="108" width="18" height="18" />
<rect x="612" y="108" width="18" height="18" />
<rect x="648" y="108" width="18" height="18" />
<rect x="684" y="108" width="18" height="18" />
<rect x="702" y="108" width="18" height="18" />
<rect x="720" y="108" width="18" height="18" />
<rect x="756" y="108" width="18" height="18" />
<rect x="36" y="126" width="18" height="18" />
<rect x="144" y="126" width="18" height="18" />
<rect x="180" y="126" width="18" height="18" />
<rect x="198" y="126" width="18" height="18" />
<rect x="252" y="126" width="18" height="18" />
<rect x="270" y="126" width="18" height="18" />
<rect x="288" y="126" width="18" height="18" />
<rect x="306" y="126" width="18" height="18" />
<rect x="342" y="126" width="18" height="18" />
<rect x="360" y="126" width="18" height="18" />
<rect x="378" y="126" width="18" height="18" />
<rect x="396" y="126" width="18" height="18" />
<rect x="414" y="126" width="18" height="18" />
<rect x="432" y="126" width="18" height="18" />
<rect x="450" y="126" width="18" height="18" />
<rect x="486" y="126" width="18" height="18" />
<rect x="558" y="126" width="18" height="18" />
<rect x="576" y="126" width="18" height="18" />
<rect x="594" y="126" width="18" height="18" />
<rect x="648" y="126" width="18" height="18" />
<rect x="756" y="126" width="18" height="18" />
<rect x="36" y="144" width="18" height="18" />
<rect x="54" y="144" width="18" height="18" />
<rect x="72" y="144" width="18" height="18" />
<rect x="90" y="144" width="18" height="18" />
<rect x="108" y="144" width="18" height="18" />
<rect x="126" y="144" width="18" height="18" />
<rect x="144" y="144" width="18" height="18" />
<rect x="180" y="144" width="18" height="18" />
<rect x="216" y="144" width="18" height="18" />
<rect x="252" y="144" width="18" height="18" />
<rect x="288" y="144" width="18" height="18" />
<rect x="324" y="144" width="18" height="18" />
<rect x="360" y="144" width="18" height="18" />
<rect x="396" y="144" width="18" height="18" />
<rect x="432" y="144" width="18" height="18" />
<rect x="468" y="144" width="18" height="18" />
<rect x="504" y="144" width="18" height="18" />
<rect x="540" y="144" width="18" height="18" />
<rect x="576" y="144" width="18" height="18" />
<rect x="612" y="144" width="18" height="18" />
<rect x="648" y="144" width="18" height="18" />
<rect x="666" y="144" width="18" height="18" />
<rect x="684" y="144" width="18" height="18" />
<rect x="702" y="144" width="18" height="18" />
<rect x="720" y="144" width="18" height="18" />
<rect x="738" y="144" width="18" height="18" />
<rect x="756" y="144" width="18" height="18" />
<rect x="180" y="162" width="18" height="18" />
<rect x="198" y="162" width="18" height="18" />
<rect x="270" y="162" width="18" height="18" />
<rect x="288" y="162" width="18" height="18" />
<rect x="558" y="162" width="18" height="18" />
<rect x="576" y="162" width="18" height="18" />
<rect x="612" y="162" width="18" height="18" />
<rect x="108" y="180" width="18" height="18" />
<rect x="126" y="180" width="18" height="18" />
<rect x="144" y="180" width="18" height="18" />
<rect x="162" y="180" width="18" height="18" />
<rect x="234" y="180" width="18" height="18" />
<rect x="252" y="180" width="18" height="18" />
<rect x="270" y="180" width="18" height="18" />
<rect x="288" y="180" width="18" height="18" />
<rect x="306" y="180" width="18" height="18" />
<rect x="342" y="180" width="18" height="18" />
<rect x="360" y="180" width="18" height="18" />
<rect x="378" y="180" width="18" height="18" />
<rect x="396" y="180" width="18" height="18" />
<rect x="414" y="180" width="18" height="18" />
<rect x="468" y="180" width="18" height="18" />
<rect x="504" y="180" width="18" height="18" />
<rect x="540" y="180" width="18" height="18" />
<rect x="558" y="180" width="18" height="18" />
<rect x="612" y="180" width="18" height="18" />
<rect x="648" y="180" width="18" height="18" />
<rect x="666" y="180" width="18" height="18" />
<rect x="738" y="180" width="18" height="18" />
<rect x="90" y="198" width="18" height="18" />
<rect x="126" y="198" width="18" height="18" />
<rect x="162" y="198" width="18" height="18" />
<rect x="180" y="198" width="18" height="18" />
<rect x="216" y="198" width="18" height="18" />
<rect x="234" y="198" width="18" height="18" />
<rect x="342" y="198" width="18" height="18" />
<rect x="360" y="198" width="18" height="18" />
<rect x="450" y="198" width="18" height="18" />
<rect x="486" y="198" width="18" height="18" />
<rect x="504" y="198" width="18" height="18" />
<rect x="522" y="198" width="18" height="18" />
<rect x="540" y="198" width="18" height="18" />
<rect x="648" y="198" width="18" height="18" />
<rect x="684" y="198" width="18" height="18" />
<rect x="702" y="198" width="18" height="18" />
<rect x="756" y="198" width="18" height="18" />
<rect x="90" y="216" width="18" height="18" />
<rect x="144" y="216" width="18" height="18" />
<rect x="162" y="216" width="18" height="18" />
<rect x="234" y="216" width="18" height="18" />
<rect x="252" y="216" width="18" height="18" />
<rect x="270" y="216" width="18" height="18" />
<rect x="288" y="216" width="18" height="18" />
<rect x="306" y="216" width="18" height="18" />
<rect x="324" y="216" width="18" height="18" />
<rect x="378" y="216" width="18" height="18" />
<rect x="396" y="216" width="18" height="18" />
<rect x="450" y="216" width="18" height="18" />
<rect x="468" y="216" width="18" height="18" />
<rect x="486" y="216" width="18" height="18" />
<rect x="522" y="216" width="18" height="18" />
<rect x="558" y="216" width="18" height="18" />
<rect x="612" y="216" width="18" height="18" />
<rect x="648" y="216" width="18" height="18" />
<rect x="738" y="216" width="18" height="18" />
<rect x="36" y="234" width="18" height="18" />
<rect x="126" y="234" width="18" height="18" />
<rect x="162" y="234" width="18" height="18" />
<rect x="216" y="234" width="18" height="18" />
<rect x="288" y="234" width="18" height="18" />
<rect x="306" y="234" width="18" height="18" />
<rect x="324" y="234" width="18" height="18" />
<rect x="342" y="234" width="18" height="18" />
<rect x="360" y="234" width="18" height="18" />
<rect x="414" y="234" width="18" height="18" />
<rect x="450" y="234" width="18" height="18" />
<rect x="486" y="234" width="18" height="18" />
<rect x="522" y="234" width="18" height="18" />
<rect x="540" y="234" width="18" height="18" />
<rect x="558" y="234" width="18" height="18" />
<rect x="594" y="234" width="18" height="18" />
<rect x="612" y="234" width="18" height="18" />
<rect x="648" y="234" width="18" height="18" />
<rect x="684" y="234" width="18" height="18" />
<rect x="702" y="234" width="18" height="18" />
<rect x="756" y="234" width="18" height="18" />
<rect x="36" y="252" width="18" height="18" />
<rect x="54" y="252" width="18" height="18" />
<rect x="90" y="252" width="18" height="18" />
<rect x="108" y="252" width="18" height="18" />
<rect x="144" y="252" width="18" height="18" />
<rect x="216" y="252" width="18" height="18" />
<rect x="234" y="252" width="18" height="18" />
<rect x="288" y="252" width="18" height="18" />
<rect x="360" y="252" width="18" height="18" />
<rect x="378" y="252" width="18" height="18" />
<rect x="396" y="252" width="18" height="18" />
<rect x="432" y="252" width="18" height="18" />
<rect x="450" y="252" width="18" height="18" />
<rect x="468" y="252" width="18" height="18" />
<rect x="522" y="252" width="18" height="18" />
<rect x="630" y="252" width="18" height="18" />
<rect x="648" y="252" width="18" height="18" />
<rect x="738" y="252" width="18" height="18" />
<rect x="36" y="270" width="18" height="18" />
<rect x="72" y="270" width="18" height="18" />
<rect x="108" y="270" width="18" height="18" />
<rect x="162" y="270" width="18" height="18" />
<rect x="216" y="270" width="18" height="18" />
<rect x="270" y="270" width="18" height="18" />
<rect x="288" y="270" width="18" height="18" />
<rect x="324" y="270" width="18" height="18" />
<rect x="396" y="270" width="18" height="18" />
<rect x="486" y="270" width="18" height="18" />
<rect x="540" y="270" width="18" height="18" />
<rect x="558" y="270" width="18" height="18" />
<rect x="576" y="270" width="18" height="18" />
<rect x="594" y="270" width="18" height="18" />
<rect x="612" y="270" width="18" height="18" />
<rect x="648" y="270" width="18" height="18" />
<rect x="684" y="270" width="18" height="18" />
<rect x="702" y="270" width="18" height="18" />
<rect x="720" y="270" width="18" height="18" />
<rect x="738" y="270" width="18" height="18" />
<rect x="54" y="288" width="18" height="18" />
<rect x="72" y="288" width="18" height="18" />
<rect x="90" y="288" width="18" height="18" />
<rect x="108" y="288" width="18" height="18" />
<rect x="126" y="288" width="18" height="18" />
<rect x="144" y="288" width="18" height="18" />
<rect x="180" y="288" width="18" height="18" />
<rect x="198" y="288" width="18" height="18" />
<rect x="216" y="288" width="18" height="18" />
<rect x="234" y="288" width="18" height="18" />
<rect x="252" y="288" width="18" height="18" />
<rect x="288" y="288" width="18" height="18" />
<rect x="306" y="288" width="18" height="18" />
<rect x="450" y="288" width="18" height="18" />
<rect x="468" y="288" width="18" height="18" />
<rect x="486" y="288" width="18" height="18" />
<rect x="504" y="288" width="18" height="18" />
<rect x="540" y="288" width="18" height="18" />
<rect x="558" y="288" width="18" height="18" />
<rect x="576" y="288" width="18" height="18" />
<rect x="612" y="288" width="18" height="18" />
<rect x="630" y="288" width="18" height="18" />
<rect x="648" y="288" width="18" height="18" />
<rect x="720" y="288" width="18" height="18" />
<rect x="36" y="306" width="18" height="18" />
<rect x="54" y="306" width="18" height="18" />
<rect x="72" y="306" width="18" height="18" />
<rect x="108" y="306" width="18" height="18" />
<rect x="126" y="306" width="18" height="18" />
<rect x="162" y="306" width="18" height="18" />
<rect x="180" y="306" width="18" height="18" />
<rect x="198" y="306" width="18" height="18" />
<rect x="234" y="306" width="18" height="18" />
<rect x="270" y="306" width="18" height="18" />
<rect x="306" y="306" width="18" height="18" />
<rect x="324" y="306" width="18" height="18" />
<rect x="342" y="306" width="18" height="18" />
<rect x="360" y="306" width="18" height="18" />
<rect x="378" y="306" width="18" height="18" />
<rect x="414" y="306" width="18" height="18" />
<rect x="432" y="306" width="18" height="18" />
<rect x="450" y="306" width="18" height="18" />
<rect x="666" y="306" width="18" height="18" />
<rect x="684" y="306" width="18" height="18" />
<rect x="702" y="306" width="18" height="18" />
<rect x="738" y="306" width="18" height="18" />
<rect x="756" y="306" width="18" height="18" />
<rect x="36" y="324" width="18" height="18" />
<rect x="90" y="324" width="18" height="18" />
<rect x="144" y="324" width="18" height="18" />
<rect x="162" y="324" width="18" height="18" />
<rect x="180" y="324" width="18" height="18" />
<rect x="270" y="324" width="18" height="18" />
<rect x="306" y="324" width="18" height="18" />
<rect x="324" y="324" width="18" height="18" />
<rect x="342" y="324" width="18" height="18" />
<rect x="504" y="324" width="18" height="18" />
<rect x="522" y="324" width="18" height="18" />
<rect x="558" y="324" width="18" height="18" />
<rect x="594" y="324" width="18" height="18" />
<rect x="612" y="324" width="18" height="18" />
<rect x="666" y="324" width="18" height="18" />
<rect x="702" y="324" width="18" height="18" />
<rect x="36" y="342" width="18" height="18" />
<rect x="72" y="342" width="18" height="18" />
<rect x="126" y="342" width="18" height="18" />
<rect x="162" y="342" width="18" height="18" />
<rect x="216" y="342" width="18" height="18" />
<rect x="270" y="342" width="18" height="18" />
<rect x="324" y="342" width="18" height="18" />
<rect x="342" y="342" width="18" height="18" />
<rect x="396" y="342" width="18" height="18" />
<rect x="414" y="342" width="18" height="18" />
<rect x="486" y="342" width="18" height="18" />
<rect x="522" y="342" width="18" height="18" />
<rect x="576" y="342" width="18" height="18" />
<rect x="612" y="342" width="18" height="18" />
<rect x="630" y="342" width="18" height="18" />
<rect x="648" y="342" width="18" height="18" />
<rect x="666" y="342" width="18" height="18" />
<rect x="684" y="342" width="18" height="18" />
<rect x="720" y="342" width="18" height="18" />
<rect x="738" y="342" width="18" height="18" />
<rect x="756" y="342" width="18" height="18" />
<rect x="108" y="360" width="18" height="18" />
<rect x="126" y="360" width="18" height="18" />
<rect x="144" y="360" width="18" height="18" />
<rect x="162" y="360" width="18" height="18" />
<rect x="180" y="360" width="18" height="18" />
<rect x="198" y="360" width="18" height="18" />
<rect x="216" y="360" width="18" height="18" />
<rect x="252" y="360" width="18" height="18" />
<rect x="270" y="360" width="18" height="18" />
<rect x="288" y="360" width="18" height="18" />
<rect x="324" y="360" width="18" height="18" />
<rect x="360" y="360" width="18" height="18" />
<rect x="396" y="360" width="18" height="18" />
<rect x="432" y="360" width="18" height="18" />
<rect x="450" y="360" width="18" height="18" />
<rect x="486" y="360" width="18" height="18" />
<rect x="540" y="360" width="18" height="18" />
<rect x="558" y="360" width="18" height="18" />
<rect x="612" y="360" width="18" height="18" />
<rect x="666" y="360" width="18" height="18" />
<rect x="720" y="360" width="18" height="18" />
<rect x="756" y="360" width="18" height="18" />
<rect x="36" y="378" width="18" height="18" />
<rect x="108" y="378" width="18" height="18" />
<rect x="162" y="378" width="18" height="18" />
<rect x="180" y="378" width="18" height="18" />
<rect x="216" y="378" width="18" height="18" />
<rect x="288" y="378" width="18" height="18" />
<rect x="324" y="378" width="18" height="18" />
<rect x="342" y="378" width="18" height="18" />
<rect x="360" y="378" width="18" height="18" />
<rect x="468" y="378" width="18" height="18" />
<rect x="504" y="378" width="18" height="18" />
<rect x="522" y="378" width="18" height="18" />
<rect x="558" y="378" width="18" height="18" />
<rect x="576" y="378" width="18" height="18" />
<rect x="612" y="378" width="18" height="18" />
<rect x="630" y="378" width="18" height="18" />
<rect x="666" y="378" width="18" height="18" />
<rect x="720" y="378" width="18" height="18" />
<rect x="756" y="378" width="18" height="18" />
<rect x="36" y="396" width="18" height="18" />
<rect x="54" y="396" width="18" height="18" />
<rect x="90" y="396" width="18" height="18" />
<rect x="144" y="396" width="18" height="18" />
<rect x="180" y="396" width="18" height="18" />
<rect x="198" y="396" width="18" height="18" />
<rect x="216" y="396" width="18" height="18" />
<rect x="288" y="396" width="18" height="18" />
<rect x="306" y="396" width="18" height="18" />
<rect x="342" y="396" width="18" height="18" />
<rect x="396" y="396" width="18" height="18" />
<rect x="414" y="396" width="18" height="18" />
<rect x="450" y="396" width="18" height="18" />
<rect x="468" y="396" width="18" height="18" />
<rect x="486" y="396" width="18" height="18" />
<rect x="504" y="396" width="18" height="18" />
<rect x="522" y="396" width="18" height="18" />
<rect x="576" y="396" width="18" height="18" />
<rect x="612" y="396" width="18" height="18" />
<rect x="630" y="396" width="18" height="18" />
<rect x="702" y="396" width="18" height="18" />
<rect x="720" y="396" width="18" height="18" />
<rect x="36" y="414" width="18" height="18" />
<rect x="54" y="414" width="18" height="18" />
<rect x="72" y="414" width="18" height="18" />
<rect x="126" y="414" width="18" height="18" />
<rect x="162" y="414" width="18" height="18" />
<rect x="180" y="414" width="18" height="18" />
<rect x="270" y="414" width="18" height="18" />
<rect x="324" y="414" width="18" height="18" />
<rect x="342" y="414" width="18" height="18" />
<rect x="378" y="414" width="18" height="18" />
<rect x="486" y="414" width="18" height="18" />
<rect x="522" y="414" width="18" height="18" />
<rect x="648" y="414" width="18" height="18" />
<rect x="666" y="414" width="18" height="18" />
<rect x="684" y="414" width="18" height="18" />
<rect x="756" y="414" width="18" height="18" />
<rect x="72" y="432" width="18" height="18" />
<rect x="144" y="432" width="18" height="18" />
<rect x="162" y="432" width="18" height="18" />
<rect x="180" y="432" width="18" height="18" />
<rect x="198" y="432" width="18" height="18" />
<rect x="288" y="432" width="18" height="18" />
<rect x="324" y="432" width="18" height="18" />
<rect x="360" y="432" width="18" height="18" />
<rect x="396" y="432" width="18" height="18" />
<rect x="468" y="432" width="18" height="18" />
<rect x="486" y="432" width="18" height="18" />
<rect x="504" y="432" width="18" height="18" />
<rect x="522" y="432" width="18" height="18" />
<rect x="540" y="432" width="18" height="18" />
<rect x="612" y="432" width="18" height="18" />
<rect x="666" y="432" width="18" height="18" />
<rect x="684" y="432" width="18" height="18" />
<rect x="756" y="432" width="18" height="18" />
<rect x="72" y="450" width="18" height="18" />
<rect x="90" y="450" width="18" height="18" />
<rect x="162" y="450" width="18" height="18" />
<rect x="216" y="450" width="18" height="18" />
<rect x="252" y="450" width="18" height="18" />
<rect x="270" y="450" width="18" height="18" />
<rect x="288" y="450" width="18" height="18" />
<rect x="324" y="450" width="18" height="18" />
<rect x="396" y="450" width="18" height="18" />
<rect x="432" y="450" width="18" height="18" />
<rect x="486" y="450" width="18" height="18" />
<rect x="522" y="450" width="18" height="18" />
<rect x="540" y="450" width="18" height="18" />
<rect x="558" y="450" width="18" height="18" />
<rect x="576" y="450" width="18" height="18" />
<rect x="594" y="450" width="18" height="18" />
<rect x="612" y="450" width="18" height="18" />
<rect x="648" y="450" width="18" height="18" />
<rect x="684" y="450" width="18" height="18" />
<rect x="702" y="450" width="18" height="18" />
<rect x="72" y="468" width="18" height="18" />
<rect x="108" y="468" width="18" height="18" />
<rect x="144" y="468" width="18" height="18" />
<rect x="162" y="468" width="18" height="18" />
<rect x="180" y="468" width="18" height="18" />
<rect x="198" y="468" width="18" height="18" />
<rect x="252" y="468" width="18" height="18" />
<rect x="270" y="468" width="18" height="18" />
<rect x="306" y="468" width="18" height="18" />
<rect x="378" y="468" width="18" height="18" />
<rect x="396" y="468" width="18" height="18" />
<rect x="468" y="468" width="18" height="18" />
<rect x="486" y="468" width="18" height="18" />
<rect x="504" y="468" width="18" height="18" />
<rect x="558" y="468" width="18" height="18" />
<rect x="612" y="468" width="18" height="18" />
<rect x="630" y="468" width="18" height="18" />
<rect x="648" y="468" width="18" height="18" />
<rect x="684" y="468" width="18" height="18" />
<rect x="702" y="468" width="18" height="18" />
<rect x="738" y="468" width="18" height="18" />
<rect x="36" y="486" width="18" height="18" />
<rect x="72" y="486" width="18" height="18" />
<rect x="90" y="486" width="18" height="18" />
<rect x="108" y="486" width="18" height="18" />
<rect x="126" y="486" width="18" height="18" />
<rect x="180" y="486" width="18" height="18" />
<rect x="216" y="486" width="18" height="18" />
<rect x="252" y="486" width="18" height="18" />
<rect x="306" y="486" width="18" height="18" />
<rect x="324" y="486" width="18" height="18" />
<rect x="342" y="486" width="18" height="18" />
<rect x="360" y="486" width="18" height="18" />
<rect x="378" y="486" width="18" height="18" />
<rect x="396" y="486" width="18" height="18" />
<rect x="414" y="486" width="18" height="18" />
<rect x="432" y="486" width="18" height="18" />
<rect x="450" y="486" width="18" height="18" />
<rect x="522" y="486" width="18" height="18" />
<rect x="540" y="486" width="18" height="18" />
<rect x="558" y="486" width="18" height="18" />
<rect x="612" y="486" width="18" height="18" />
<rect x="666" y="486" width="18" height="18" />
<rect x="720" y="486" width="18" height="18" />
<rect x="36" y="504" width="18" height="18" />
<rect x="54" y="504" width="18" height="18" />
<rect x="72" y="504" width="18" height="18" />
<rect x="108" y="504" width="18" height="18" />
<rect x="144" y="504" width="18" height="18" />
<rect x="162" y="504" width="18" height="18" />
<rect x="180" y="504" width="18" height="18" />
<rect x="216" y="504" width="18" height="18" />
<rect x="270" y="504" width="18" height="18" />
<rect x="324" y="504" width="18" height="18" />
<rect x="342" y="504" width="18" height="18" />
<rect x="360" y="504" width="18" height="18" />
<rect x="378" y="504" width="18" height="18" />
<rect x="432" y="504" width="18" height="18" />
<rect x="450" y="504" width="18" height="18" />
<rect x="468" y="504" width="18" height="18" />
<rect x="522" y="504" width="18" height="18" />
<rect x="576" y="504" width="18" height="18" />
<rect x="612" y="504" width="18" height="18" />
<rect x="630" y="504" width="18" height="18" />
<rect x="648" y="504" width="18" height="18" />
<rect x="666" y="504" width="18" height="18" />
<rect x="738" y="504" width="18" height="18" />
<rect x="54" y="522" width="18" height="18" />
<rect x="90" y="522" width="18" height="18" />
<rect x="108" y="522" width="18" height="18" />
<rect x="216" y="522" width="18" height="18" />
<rect x="234" y="522" width="18" height="18" />
<rect x="252" y="522" width="18" height="18" />
<rect x="288" y="522" width="18" height="18" />
<rect x="306" y="522" width="18" height="18" />
<rect x="324" y="522" width="18" height="18" />
<rect x="378" y="522" width="18" height="18" />
<rect x="396" y="522" width="18" height="18" />
<rect x="414" y="522" width="18" height="18" />
<rect x="450" y="522" width="18" height="18" />
<rect x="468" y="522" width="18" height="18" />
<rect x="504" y="522" width="18" height="18" />
<rect x="576" y="522" width="18" height="18" />
<rect x="594" y="522" width="18" height="18" />
<rect x="612" y="522" width="18" height="18" />
<rect x="630" y="522" width="18" height="18" />
<rect x="648" y="522" width="18" height="18" />
<rect x="684" y="522" width="18" height="18" />
<rect x="702" y="522" width="18" height="18" />
<rect x="738" y="522" width="18" height="18" />
<rect x="756" y="522" width="18" height="18" />
<rect x="36" y="540" width="18" height="18" />
<rect x="54" y="540" width="18" height="18" />
<rect x="90" y="540" width="18" height="18" />
<rect x="144" y="540" width="18" height="18" />
<rect x="162" y="540" width="18" height="18" />
<rect x="180" y="540" width="18" height="18" />
<rect x="198" y="540" width="18" height="18" />
<rect x="216" y="540" width="18" height="18" />
<rect x="252" y="540" width="18" height="18" />
<rect x="270" y="540" width="18" height="18" />
<rect x="306" y="540" width="18" height="18" />
<rect x="324" y="540" width="18" height="18" />
<rect x="342" y="540" width="18" height="18" />
<rect x="360" y="540" width="18" height="18" />
<rect x="450" y="540" width="18" height="18" />
<rect x="468" y="540" width="18" height="18" />
<rect x="486" y="540" width="18" height="18" />
<rect x="540" y="540" width="18" height="18" />
<rect x="576" y="540" width="18" height="18" />
<rect x="612" y="540" width="18" height="18" />
<rect x="666" y="540" width="18" height="18" />
<rect x="738" y="540" width="18" height="18" />
<rect x="756" y="540" width="18" height="18" />
<rect x="36" y="558" width="18" height="18" />
<rect x="54" y="558" width="18" height="18" />
<rect x="72" y="558" width="18" height="18" />
<rect x="90" y="558" width="18" height="18" />
<rect x="180" y="558" width="18" height="18" />
<rect x="234" y="558" width="18" height="18" />
<rect x="252" y="558" width="18" height="18" />
<rect x="270" y="558" width="18" height="18" />
<rect x="288" y="558" width="18" height="18" />
<rect x="360" y="558" width="18" height="18" />
<rect x="396" y="558" width="18" height="18" />
<rect x="414" y="558" width="18" height="18" />
<rect x="432" y="558" width="18" height="18" />
<rect x="450" y="558" width="18" height="18" />
<rect x="468" y="558" width="18" height="18" />
<rect x="504" y="558" width="18" height="18" />
<rect x="594" y="558" width="18" height="18" />
<rect x="666" y="558" width="18" height="18" />
<rect x="684" y="558" width="18" height="18" />
<rect x="720" y="558" width="18" height="18" />
<rect x="72" y="576" width="18" height="18" />
<rect x="144" y="576" width="18" height="18" />
<rect x="216" y="576" width="18" height="18" />
<rect x="234" y="576" width="18" height="18" />
<rect x="252" y="576" width="18" height="18" />
<rect x="288" y="576" width="18" height="18" />
<rect x="306" y="576" width="18" height="18" />
<rect x="342" y="576" width="18" height="18" />
<rect x="378" y="576" width="18" height="18" />
<rect x="396" y="576" width="18" height="18" />
<rect x="414" y="576" width="18" height="18" />
<rect x="432" y="576" width="18" height="18" />
<rect x="450" y="576" width="18" height="18" />
<rect x="504" y="576" width="18" height="18" />
<rect x="522" y="576" width="18" height="18" />
<rect x="558" y="576" width="18" height="18" />
<rect x="576" y="576" width="18" height="18" />
<rect x="594" y="576" width="18" height="18" />
<rect x="630" y="576" width="18" height="18" />
<rect x="666" y="576" width="18" height="18" />
<rect x="684" y="576" width="18" height="18" />
<rect x="738" y="576" width="18" height="18" />
<rect x="756" y="576" width="18" height="18" />
<rect x="72" y="594" width="18" height="18" />
<rect x="90" y="594" width="18" height="18" />
<rect x="108" y="594" width="18" height="18" />
<rect x="180" y="594" width="18" height="18" />
<rect x="198" y="594" width="18" height="18" />
<rect x="216" y="594" width="18" height="18" />
<rect x="234" y="594" width="18" height="18" />
<rect x="252" y="594" width="18" height="18" />
<rect x="270" y="594" width="18" height="18" />
<rect x="288" y="594" width="18" height="18" />
<rect x="306" y="594" width="18" height="18" />
<rect x="324" y="594" width="18" height="18" />
<rect x="360" y="594" width="18" height="18" />
<rect x="450" y="594" width="18" height="18" />
<rect x="486" y="594" width="18" height="18" />
<rect x="522" y="594" width="18" height="18" />
<rect x="540" y="594" width="18" height="18" />
<rect x="576" y="594" width="18" height="18" />
<rect x="594" y="594" width="18" height="18" />
<rect x="612" y="594" width="18" height="18" />
<rect x="630" y="594" width="18" height="18" />
<rect x="666" y="594" width="18" height="18" />
<rect x="702" y="594" width="18" height="18" />
<rect x="738" y="594" width="18" height="18" />
<rect x="756" y="594" width="18" height="18" />
<rect x="36" y="612" width="18" height="18" />
<rect x="54" y="612" width="18" height="18" />
<rect x="72" y="612" width="18" height="18" />
<rect x="126" y="612" width="18" height="18" />
<rect x="144" y="612" width="18" height="18" />
<rect x="162" y="612" width="18" height="18" />
<rect x="198" y="612" width="18" height="18" />
<rect x="306" y="612" width="18" height="18" />
<rect x="324" y="612" width="18" height="18" />
<rect x="342" y="612" width="18" height="18" />
<rect x="396" y="612" width="18" height="18" />
<rect x="432" y="612" width="18" height="18" />
<rect x="450" y="612" width="18" height="18" />
<rect x="468" y="612" width="18" height="18" />
<rect x="558" y="612" width="18" height="18" />
<rect x="576" y="612" width="18" height="18" />
<rect x="612" y="612" width="18" height="18" />
<rect x="630" y="612" width="18" height="18" />
<rect x="648" y="612" width="18" height="18" />
<rect x="666" y="612" width="18" height="18" />
<rect x="684" y="612" width="18" height="18" />
<rect x="738" y="612" width="18" height="18" />
<rect x="756" y="612" width="18" height="18" />
<rect x="180" y="630" width="18" height="18" />
<rect x="198" y="630" width="18" height="18" />
<rect x="234" y="630" width="18" height="18" />
<rect x="270" y="630" width="18" height="18" />
<rect x="324" y="630" width="18" height="18" />
<rect x="360" y="630" width="18" height="18" />
<rect x="396" y="630" width="18" height="18" />
<rect x="468" y="630" width="18" height="18" />
<rect x="504" y="630" width="18" height="18" />
<rect x="558" y="630" width="18" height="18" />
<rect x="576" y="630" width="18" height="18" />
<rect x="594" y="630" width="18" height="18" />
<rect x="612" y="630" width="18" height="18" />
<rect x="684" y="630" width="18" height="18" />
<rect x="702" y="630" width="18" height="18" />
<rect x="720" y="630" width="18" height="18" />
<rect x="756" y="630" width="18" height="18" />
<rect x="36" y="648" width="18" height="18" />
<rect x="54" y="648" width="18" height="18" />
<rect x="72" y="648" width="18" height="18" />
<rect x="90" y="648" width="18" height="18" />
<rect x="108" y="648" width="18" height="18" />
<rect x="126" y="648" width="18" height="18" />
<rect x="144" y="648" width="18" height="18" />
<rect x="180" y="648" width="18" height="18" />
<rect x="198" y="648" width="18" height="18" />
<rect x="234" y="648" width="18" height="18" />
<rect x="252" y="648" width="18" height="18" />
<rect x="378" y="648" width="18" height="18" />
<rect x="414" y="648" width="18" height="18" />
<rect x="432" y="648" width="18" height="18" />
<rect x="450" y="648" width="18" height="18" />
<rect x="468" y="648" width="18" height="18" />
<rect x="486" y="648" width="18" height="18" />
<rect x="540" y="648" width="18" height="18" />
<rect x="576" y="648" width="18" height="18" />
<rect x="612" y="648" width="18" height="18" />
<rect x="648" y="648" width="18" height="18" />
<rect x="684" y="648" width="18" height="18" />
<rect x="720" y="648" width="18" height="18" />
<rect x="756" y="648" width="18" height="18" />
<rect x="36" y="666" width="18" height="18" />
<rect x="144" y="666" width="18" height="18" />
<rect x="180" y="666" width="18" height="18" />
<rect x="198" y="666" width="18" height="18" />
<rect x="270" y="666" width="18" height="18" />
<rect x="288" y="666" width="18" height="18" />
<rect x="306" y="666" width="18" height="18" />
<rect x="378" y="666" width="18" height="18" />
<rect x="396" y="666" width="18" height="18" />
<rect x="414" y="666" width="18" height="18" />
<rect x="468" y="666" width="18" height="18" />
<rect x="504" y="666" width="18" height="18" />
<rect x="522" y="666" width="18" height="18" />
<rect x="612" y="666" width="18" height="18" />
<rect x="684" y="666" width="18" height="18" />
<rect x="738" y="666" width="18" height="18" />
<rect x="36" y="684" width="18" height="18" />
<rect x="72" y="684" width="18" height="18" />
<rect x="90" y="684" width="18" height="18" />
<rect x="108" y="684" width="18" height="18" />
<rect x="144" y="684" width="18" height="18" />
<rect x="180" y="684" width="18" height="18" />
<rect x="216" y="684" width="18" height="18" />
<rect x="252" y="684" width="18" height="18" />
<rect x="270" y="684" width="18" height="18" />
<rect x="324" y="684" width="18" height="18" />
<rect x="360" y="684" width="18" height="18" />
<rect x="378" y="684" width="18" height="18" />
<rect x="396" y="684" width="18" height="18" />
<rect x="450" y="684" width="18" height="18" />
<rect x="468" y="684" width="18" height="18" />
<rect x="486" y="684" width="18" height="18" />
<rect x="522" y="684" width="18" height="18" />
<rect x="612" y="684" width="18" height="18" />
<rect x="630" y="684" width="18" height="18" />
<rect x="648" y="684" width="18" height="18" />
<rect x="666" y="684" width="18" height="18" />
<rect x="684" y="684" width="18" height="18" />
<rect x="702" y="684" width="18" height="18" />
<rect x="756" y="684" width="18" height="18" />
<rect x="36" y="702" width="18" height="18" />
<rect x="72" y="702" width="18" height="18" />
<rect x="90" y="702" width="18" height="18" />
<rect x="108" y="702" width="18" height="18" />
<rect x="144" y="702" width="18" height="18" />
<rect x="216" y="702" width="18" height="18" />
<rect x="234" y="702" width="18" height="18" />
<rect x="324" y="702" width="18" height="18" />
<rect x="342" y="702" width="18" height="18" />
<rect x="360" y="702" width="18" height="18" />
<rect x="378" y="702" width="18" height="18" />
<rect x="414" y="702" width="18" height="18" />
<rect x="432" y="702" width="18" height="18" />
<rect x="450" y="702" width="18" height="18" />
<rect x="504" y="702" width="18" height="18" />
<rect x="576" y="702" width="18" height="18" />
<rect x="594" y="702" width="18" height="18" />
<rect x="612" y="702" width="18" height="18" />
<rect x="666" y="702" width="18" height="18" />
<rect x="738" y="702" width="18" height="18" />
<rect x="36" y="720" width="18" height="18" />
<rect x="72" y="720" width="18" height="18" />
<rect x="90" y="720" width="18" height="18" />
<rect x="108" y="720" width="18" height="18" />
<rect x="144" y="720" width="18" height="18" />
<rect x="216" y="720" width="18" height="18" />
<rect x="234" y="720" width="18" height="18" />
<rect x="252" y="720" width="18" height="18" />
<rect x="324" y="720" width="18" height="18" />
<rect x="342" y="720" width="18" height="18" />
<rect x="378" y="720" width="18" height="18" />
<rect x="486" y="720" width="18" height="18" />
<rect x="522" y="720" width="18" height="18" />
<rect x="594" y="720" width="18" height="18" />
<rect x="612" y="720" width="18" height="18" />
<rect x="630" y="720" width="18" height="18" />
<rect x="720" y="720" width="18" height="18" />
<rect x="738" y="720" width="18" height="18" />
<rect x="756" y="720" width="18" height="18" />
<rect x="36" y="738" width="18" height="18" />
<rect x="144" y="738" width="18" height="18" />
<rect x="234" y="738" width="18" height="18" />
<rect x="288" y="738" width="18" height="18" />
<rect x="378" y="738" width="18" height="18" />
<rect x="432" y="738" width="18" height="18" />
<rect x="468" y="738" width="18" height="18" />
<rect x="486" y="738" width="18" height="18" />
<rect x="504" y="738" width="18" height="18" />
<rect x="522" y="738" width="18" height="18" />
<rect x="540" y="738" width="18" height="18" />
<rect x="558" y="738" width="18" height="18" />
<rect x="576" y="738" width="18" height="18" />
<rect x="612" y="738" width="18" height="18" />
<rect x="630" y="738" width="18" height="18" />
<rect x="648" y="738" width="18" height="18" />
<rect x="666" y="738" width="18" height="18" />
<rect x="702" y="738" width="18" height="18" />
<rect x="738" y="738" width="18" height="18" />
<rect x="756" y="738" width="18" height="18" />
<rect x="36" y="756" width="18" height="18" />
<rect x="54" y="756" width="18" height="18" />
<rect x="72" y="756" width="18" height="18" />
<rect x="90" y="756" width="18" height="18" />
<rect x="108" y="756" width="18" height="18" />
<rect x="126" y="756" width="18" height="18" />
<rect x="144" y="756" width="18" height="18" />
<rect x="198" y="756" width="18" height="18" />
<rect x="234" y="756" width="18" height="18" />
<rect x="270" y="756" width="18" height="18" />
<rect x="288" y="756" width="18" height="18" />
<rect x="324" y="756" width="18" height="18" />
<rect x="414" y="756" width="18" height="18" />
<rect x="432" y="756" width="18" height="18" />
<rect x="540" y="756" width="18" height="18" />
<rect x="558" y="756" width="18" height="18" />
<rect x="612" y="756" width="18" height="18" />
<rect x="630" y="756" width="18" height="18" />
<rect x="648" y="756" width="18" height="18" />
<rect x="666" y="756" width="18" height="18" />
<rect x="684" y="756" width="18" height="18" />
<rect x="702" y="756" width="18" height="18" />
<rect x="738" y="756" width="18" height="18" />
</g>
</svg>